<svg id="Group_768" data-name="Group 768" xmlns="http://www.w3.org/2000/svg" width="43.496" height="48.704" viewBox="0 0 43.496 48.704">
  <path id="Path_6587" data-name="Path 6587" d="M34.3,37.963A12.167,12.167,0,0,1,46.453,25.809c.03,0,.061,0,.092,0V7.385a4.15,4.15,0,0,0-4.15-4.147H40.616a7.062,7.062,0,0,1,.255,1.9,3.5,3.5,0,0,1-3.5,3.5H22.091a3.5,3.5,0,0,1-3.5-3.5,7.265,7.265,0,0,1,.25-1.9H17.071a4.147,4.147,0,0,0-4.15,4.147V43.778a4.15,4.15,0,0,0,4.15,4.15H39.5a12.149,12.149,0,0,1-5.2-9.965M17.8,14.082a1.025,1.025,0,0,1,.738-.32H40.818a1.069,1.069,0,0,1,1.035,1.095,1.152,1.152,0,0,1-.3.779,1,1,0,0,1-.733.32H18.542a1.07,1.07,0,0,1-1.04-1.1,1.148,1.148,0,0,1,.3-.775m0,5.6a1.006,1.006,0,0,1,.738-.32H40.818a1.068,1.068,0,0,1,1.035,1.094,1.145,1.145,0,0,1-.3.78,1.022,1.022,0,0,1-.733.32H18.542a1.071,1.071,0,0,1-1.04-1.1,1.145,1.145,0,0,1,.3-.774m0,5.6a1.025,1.025,0,0,1,.738-.32h17a1.071,1.071,0,0,1,1.04,1.1,1.119,1.119,0,0,1-.3.774,1.017,1.017,0,0,1-.738.321h-17a1.07,1.07,0,0,1-1.04-1.095,1.151,1.151,0,0,1,.3-.78m1.668,16.26a2,2,0,0,1,.014-4,2,2,0,1,1-.014,4m8.109,0a2,2,0,1,1-.035-4,2,2,0,0,1,.035,4m4.752-9.1a1.031,1.031,0,0,1-.737.32H18.542a1.069,1.069,0,0,1-1.04-1.095,1.157,1.157,0,0,1,.3-.779,1.006,1.006,0,0,1,.738-.32H31.6a1.069,1.069,0,0,1,1.039,1.1,1.125,1.125,0,0,1-.3.775" transform="translate(-12.921 0.776)" fill="#fb9d55"/>
  <path id="Path_6588" data-name="Path 6588" d="M41.889,23.209a9.963,9.963,0,1,0,6.674,17.35,9.647,9.647,0,0,0,1.457-1.642,9.951,9.951,0,0,0-8.131-15.708m0,17.735a7.773,7.773,0,1,1,7.77-7.775,7.781,7.781,0,0,1-7.77,7.775" transform="translate(-8.358 5.57)" fill="#fb9d55"/>
  <path id="Path_6589" data-name="Path 6589" d="M44.842,29.834c-.149,0-4.67,0-4.855,0-.04,0-.055-.01-.055-.05,0-.124,0-.254,0-.378a3.779,3.779,0,0,0-.1-.971,1.718,1.718,0,0,0-.343-.687,1.326,1.326,0,0,0-.742-.434,1.487,1.487,0,0,0-.294-.03c-.064,0-.135,0-.2,0s-.139.015-.21.025a2.827,2.827,0,0,0-.537.13,2.775,2.775,0,0,0-.837.413.288.288,0,0,0-.084.089.113.113,0,0,0,0,.105c.119.2.239.413.358.623a.073.073,0,0,0,.074.04.267.267,0,0,0,.125-.04,1.149,1.149,0,0,1,.7-.15.455.455,0,0,1,.329.2.947.947,0,0,1,.139.4c.025.219.025.438.03.657,0,.04-.01.05-.045.05-.139,0-.279,0-.418,0h-.4c-.11,0-.155.045-.155.16v1.095c.01.1.05.139.155.139H38.3c.035,0,.045.01.045.045v4.367a1.536,1.536,0,0,0,.21.776.93.93,0,0,0,.358.348,2.3,2.3,0,0,0,.494.188,3.274,3.274,0,0,0,.791.135,3.565,3.565,0,0,0,.8-.064,3.753,3.753,0,0,0,1.314-.484,3.206,3.206,0,0,0,1.435-1.772,3.023,3.023,0,0,0,.149-.862,2.322,2.322,0,0,0-.079-.637,1.982,1.982,0,0,0-.7-1.07,1.164,1.164,0,0,0-.19-.129,1.883,1.883,0,0,0-1.693-.1,1.366,1.366,0,0,0-.732.7,1.466,1.466,0,0,0-.089,1.03,1.076,1.076,0,0,0,.5.692,1.263,1.263,0,0,0,1.125.1,1.03,1.03,0,0,0,.678-1.12c0-.045-.015-.089-.02-.135.01,0,.015,0,.02,0a.768.768,0,0,1,.159.234,1.376,1.376,0,0,1,.045.812,1.54,1.54,0,0,1-.174.418c-.045.079-.1.149-.145.224a2.457,2.457,0,0,1-.184.213,1.9,1.9,0,0,1-.474.368,2.88,2.88,0,0,1-.916.314,1.841,1.841,0,0,1-.547.02.808.808,0,0,1-.393-.149.4.4,0,0,1-.165-.334V31.282c0-.055,0-.055.06-.055h4.86c.1,0,.129-.03.129-.134v-1.12c0-.1-.035-.14-.134-.14" transform="translate(-7.243 6.55)" fill="#fb9d55"/>
  <path id="Path_6590" data-name="Path 6590" d="M20.726,8.027H36a2.114,2.114,0,0,0,2.116-2.116A5.91,5.91,0,0,0,32.208,0H24.52a5.91,5.91,0,0,0-5.91,5.91,2.113,2.113,0,0,0,2.116,2.116m7.639-6.3a2.284,2.284,0,1,1-2.282,2.282A2.284,2.284,0,0,1,28.364,1.73" transform="translate(-11.555 -0.001)" fill="#fb9d55"/>
</svg>
