<svg id="Group_773" data-name="Group 773" xmlns="http://www.w3.org/2000/svg" width="50.46" height="32.685" viewBox="0 0 50.46 32.685">
  <path id="Path_6565" data-name="Path 6565" d="M135.938,123.752a3.1,3.1,0,0,1-1.988-.711l-5.279,4.019a3.17,3.17,0,0,1,.268,1.277,3.135,3.135,0,1,1-6.27,0,3.939,3.939,0,0,1,.026-.408l-4.432-1.689a3.132,3.132,0,1,1,.544-1.765,2.47,2.47,0,0,1-.031.408l4.437,1.694a3.132,3.132,0,0,1,4.581-.667l5.278-4.019a3.137,3.137,0,1,1,2.866,1.86m11.175-13.295H104.5a1.154,1.154,0,1,1,0-2.308h42.618a1.154,1.154,0,1,1,0,2.308m2.541-5.077h-47.7a1.383,1.383,0,0,0-1.381,1.386v5.077a1.382,1.382,0,0,0,1.383,1.383h1.815v20.741a4.1,4.1,0,0,0,4.1,4.1h35.862a4.1,4.1,0,0,0,4.1-4.1V113.227h1.82a1.382,1.382,0,0,0,1.383-1.383v-5.077a1.383,1.383,0,0,0-1.383-1.386" transform="translate(-100.577 -105.381)" fill="#08a88a"/>
</svg>
