<svg id="Layer_1" data-name="Layer 1" xmlns="http://www.w3.org/2000/svg" width="48.724" height="48.705" viewBox="0 0 97.012 96.97">
  <g id="Group_841" data-name="Group 841" transform="translate(0 0)">
    <path id="Path_6773" data-name="Path 6773" d="M13.012,14.181a10.173,10.173,0,0,1,1,.446c.227.131.673.087.612.507s.079.909-.524,1.188a1.478,1.478,0,0,0-.183,2.612.777.777,0,0,1,.349.847c-.376,5.181-.769,10.361-1.11,15.542-.122,1.887.76,3.564,1.328,5.3a.32.32,0,0,0,.306.236c.218-.017.3-.192.358-.358.21-.6.384-1.214.62-1.8a9.816,9.816,0,0,0,.6-4.4c-.367-4.77-.69-9.549-1.048-14.319a1.046,1.046,0,0,1,.437-1.136,1.434,1.434,0,0,0-.114-2.411c-.612-.323-.7-.725-.655-1.389,2.009.865,3.931,1.721,5.88,2.525a.774.774,0,0,1,.542.865c-.017,2.429,0,4.857-.009,7.286,0,.271-.052.542-.079.812-.236,2.525-.9,5-.987,7.548,0,.149.044.323-.149.411A2.776,2.776,0,0,0,18.8,36.922a13.4,13.4,0,0,0,1.59,8.535,2.333,2.333,0,0,0,.909,1.083c1.022.446,1.258,1.389,1.634,2.263.315.725.646,1.45,1.013,2.158A28.237,28.237,0,0,0,32.7,61.55c4.534,3.145,9.3,3.713,14.3,1.1a19.363,19.363,0,0,0,4.622-3.442,33.174,33.174,0,0,0,7.417-11.532c.1-.262.131-.577.437-.734a3.912,3.912,0,0,0,1.686-1.9,13.6,13.6,0,0,0,1.372-8.055,3.22,3.22,0,0,0-.97-2.184.9.9,0,0,1-.349-.865,29.832,29.832,0,0,0-.3-6.177,23.286,23.286,0,0,1-.594-3.206c0-2.018.017-4.036-.017-6.063a.863.863,0,0,1,.62-.952c2.569-1.083,5.12-2.2,7.679-3.311a4.357,4.357,0,0,0,1.066-.585,1.035,1.035,0,0,0,0-1.773,4.357,4.357,0,0,0-1.066-.585Q56.41,6.008,44.209.727a8.249,8.249,0,0,0-6.745.017C30.572,3.706,23.7,6.7,16.812,9.682c-1.249.542-2.5,1.075-3.739,1.625-.681.306-1.511.559-1.5,1.468.009.865.812,1.118,1.468,1.424Zm9.479,24.313c.07-1.127.62-1.529,1.7-1.232a12.539,12.539,0,0,1,1.293-3.984,7.652,7.652,0,0,1,3.425-3.39,1.416,1.416,0,0,1,1.284-.017q3.6,1.6,7.234,3.145a8.393,8.393,0,0,0,6.806,0c2.525-1.075,5.032-2.175,7.557-3.267a1.719,1.719,0,0,1,2.237.542,17.559,17.559,0,0,1,3,6.351c.114.4.131.8.751.489.341-.175.646.1.847.4a2.547,2.547,0,0,1,.411,1.144,8.945,8.945,0,0,1-1.162,5.958c-.341.585-.76,1.153-1.634.874-.341-.1-.3.288-.358.463a29.274,29.274,0,0,1-3.468,6.911,19.96,19.96,0,0,1-5.548,5.644,10.477,10.477,0,0,1-12.318,0,22.552,22.552,0,0,1-7.6-9.165,30.046,30.046,0,0,1-1.459-3.512c-.087-.262-.122-.419-.5-.3-.594.192-.987-.245-1.293-.673a7.01,7.01,0,0,1-1.319-3.94c-.017-.812.052-1.634.1-2.446Z" transform="translate(-1.459 -0.015)" fill="#fb5968"/>
    <path id="Path_6774" data-name="Path 6774" d="M53.1,86.515A24.059,24.059,0,0,1,56.419,74.3c-.909-.114-1.608-.157-2.009.882a3.17,3.17,0,0,1-.952,1.048,11.429,11.429,0,0,1-3.512,2.044,26.93,26.93,0,0,1-8.771,1.712,29.275,29.275,0,0,1-12.039-1.721,8.29,8.29,0,0,1-4.228-2.839,2.3,2.3,0,0,0-2.673-1.11c-2.586.341-5.189.358-7.775.8a14.766,14.766,0,0,0-9.994,6.788A32.651,32.651,0,0,0,.41,90.936a7.453,7.453,0,0,0,3.355,9.051,24.357,24.357,0,0,0,6.36,2.708,68.83,68.83,0,0,0,10.781,2.14,109.436,109.436,0,0,0,18.626,1.529,109.29,109.29,0,0,0,18.748-1.546c.917-.122,1.826-.253,2.735-.393a24.151,24.151,0,0,1-7.924-17.9Z" transform="translate(0.003 -9.394)" fill="#fb5968"/>
    <path id="Path_6775" data-name="Path 6775" d="M85.462,65.33A19.836,19.836,0,1,0,98.75,99.874a19.088,19.088,0,0,0,2.9-3.267A19.814,19.814,0,0,0,85.462,65.33Zm0,35.313a15.477,15.477,0,1,1,15.472-15.481A15.492,15.492,0,0,1,85.462,100.643Z" transform="translate(-8.29 -8.268)" fill="#fb5968"/>
    <path id="Path_6776" data-name="Path 6776" d="M93.135,84.181V80.363A5.242,5.242,0,0,0,87.9,75.13H86.653a5.242,5.242,0,0,0-5.233,5.233v3.818a3.607,3.607,0,0,0-1.87,3.145v5.4a3.624,3.624,0,0,0,3.617,3.617h8.212A3.624,3.624,0,0,0,95,92.725v-5.4a3.607,3.607,0,0,0-1.87-3.145ZM83.018,80.372a3.637,3.637,0,0,1,3.634-3.634H87.9a3.63,3.63,0,0,1,3.626,3.634v3.355c-.052,0-.1-.017-.149-.017H83.167a.861.861,0,0,0-.149.017V80.372Zm5.548,9.322v3.425a1.31,1.31,0,1,1-2.621,0V89.694a1.871,1.871,0,1,1,3.18-1.337A1.853,1.853,0,0,1,88.566,89.694Z" transform="translate(-10.049 -9.506)" fill="#fb5968"/>
  </g>
</svg>
