<svg xmlns="http://www.w3.org/2000/svg" width="22" height="22" viewBox="0 0 22 22">
  <g id="Group_1011" data-name="Group 1011" transform="translate(-123 -604.213)">
    <path id="Path_7349" data-name="Path 7349" d="M18.7,1195.9a3.3,3.3,0,0,1-3.3,3.3H5.5a3.3,3.3,0,0,1-3.3-3.3V1186a3.3,3.3,0,0,1,3.3-3.3H11v-2.2H5.5A5.506,5.506,0,0,0,0,1186v9.9a5.506,5.506,0,0,0,5.5,5.5h9.9a5.506,5.506,0,0,0,5.5-5.5v-5.5H18.7Z" transform="translate(123 -575.191)" fill="#202020"/>
    <path id="Path_7350" data-name="Path 7350" d="M44.422,1176.953v2.2h3.944l-4.722,4.722,1.555,1.556,4.722-4.722v3.945h2.2v-7.7Z" transform="translate(92.878 -572.741)" fill="#202020"/>
  </g>
</svg>
