<svg id="Group_967" data-name="Group 967" xmlns="http://www.w3.org/2000/svg" width="48.724" height="48.705" viewBox="0 0 48.724 48.705">
  <path id="Path_6575" data-name="Path 6575" d="M109.711,7.124c.165.076.341.133.5.222.117.064.337.042.308.254s.041.454-.263.6a.742.742,0,0,0-.092,1.311.389.389,0,0,1,.175.425c-.19,2.6-.387,5.2-.557,7.807a7.153,7.153,0,0,0,.666,2.666.156.156,0,0,0,.151.119c.108-.007.151-.1.181-.181.105-.3.195-.609.311-.9a4.9,4.9,0,0,0,.3-2.212c-.186-2.4-.348-4.8-.526-7.194a.525.525,0,0,1,.221-.572.719.719,0,0,0-.058-1.21c-.309-.161-.352-.365-.331-.7,1.008.436,1.975.864,2.951,1.269a.386.386,0,0,1,.27.436c-.01,1.219,0,2.439-.006,3.658,0,.135-.026.27-.04.407-.12,1.27-.449,2.511-.5,3.791,0,.076.021.161-.076.207a1.405,1.405,0,0,0-.7,1.219,6.731,6.731,0,0,0,.8,4.288,1.163,1.163,0,0,0,.456.544c.511.224.629.7.817,1.137.156.366.325.728.508,1.081a14.14,14.14,0,0,0,4.4,5.319,6.5,6.5,0,0,0,7.182.551,9.724,9.724,0,0,0,2.321-1.73,16.648,16.648,0,0,0,3.725-5.792c.053-.131.066-.291.221-.37a1.98,1.98,0,0,0,.849-.954,6.821,6.821,0,0,0,.688-4.046,1.61,1.61,0,0,0-.489-1.1.445.445,0,0,1-.175-.435,15.1,15.1,0,0,0-.148-3.1,11.245,11.245,0,0,1-.3-1.607c0-1.014.007-2.03-.006-3.043a.433.433,0,0,1,.311-.48c1.291-.543,2.572-1.107,3.858-1.664a2.115,2.115,0,0,0,.537-.294.52.52,0,0,0,0-.892,2.057,2.057,0,0,0-.537-.294Q131.5,3.008,125.367.357a4.146,4.146,0,0,0-3.388.01Q116.787,2.6,111.6,4.857c-.627.27-1.255.538-1.88.816-.341.151-.758.28-.753.737,0,.436.408.562.739.714m4.764,12.208c.035-.568.31-.769.854-.618a6.333,6.333,0,0,1,.649-2,3.816,3.816,0,0,1,1.719-1.7.7.7,0,0,1,.646-.007q1.812.8,3.635,1.577a4.214,4.214,0,0,0,3.419,0c1.267-.541,2.53-1.094,3.795-1.641a.859.859,0,0,1,1.121.273,8.789,8.789,0,0,1,1.5,3.192c.058.2.067.4.378.246.172-.088.322.053.427.2a1.318,1.318,0,0,1,.208.574,4.506,4.506,0,0,1-.583,2.992c-.17.291-.383.578-.82.439-.171-.053-.149.144-.18.231a14.687,14.687,0,0,1-1.742,3.471,10.056,10.056,0,0,1-2.784,2.836,5.259,5.259,0,0,1-6.187,0,11.358,11.358,0,0,1-3.818-4.6,14.155,14.155,0,0,1-.732-1.766c-.046-.13-.062-.211-.252-.149-.3.1-.5-.124-.649-.339a3.5,3.5,0,0,1-.661-1.979c-.011-.408.026-.82.052-1.229" transform="translate(-103.913 0)" fill="#08a88a"/>
  <path id="Path_6576" data-name="Path 6576" d="M131.562,32.434A12.08,12.08,0,0,1,133.23,26.3c-.458-.058-.809-.078-1.011.444a1.622,1.622,0,0,1-.477.527,5.764,5.764,0,0,1-1.762,1.026,13.517,13.517,0,0,1-4.406.862,14.767,14.767,0,0,1-6.044-.862,4.14,4.14,0,0,1-2.124-1.427,1.158,1.158,0,0,0-1.342-.558c-1.3.169-2.609.179-3.906.4a7.414,7.414,0,0,0-5.021,3.408,16.4,16.4,0,0,0-2.036,4.531,3.742,3.742,0,0,0,1.684,4.545,12.236,12.236,0,0,0,3.194,1.36,34.347,34.347,0,0,0,5.413,1.073,54.717,54.717,0,0,0,9.357.768,54.717,54.717,0,0,0,9.417-.778q.688-.091,1.374-.2a12.133,12.133,0,0,1-3.978-8.989" transform="translate(-104.892 6.306)" fill="#08a88a"/>
  <path id="Path_6577" data-name="Path 6577" d="M138.076,23.117a9.963,9.963,0,1,0,6.674,17.35,9.647,9.647,0,0,0,1.457-1.642,9.951,9.951,0,0,0-8.131-15.708m0,17.735a7.773,7.773,0,1,1,7.771-7.775,7.781,7.781,0,0,1-7.771,7.775" transform="translate(-99.317 5.549)" fill="#08a88a"/>
  <path id="Path_6578" data-name="Path 6578" d="M142.172,31.031h-3.95v-3.95h-2.194v3.95h-3.948v2.194h3.948v3.95h2.194v-3.95h3.95Z" transform="translate(-98.365 6.501)" fill="#08a88a"/>
</svg>
